<?xml version="1.0" encoding="utf-8"?>
<!-- Svg Vector Icons : http://www.onlinewebfonts.com/icon -->
<!DOCTYPE svg PUBLIC "-//W3C//DTD SVG 1.1//EN" "http://www.w3.org/Graphics/SVG/1.1/DTD/svg11.dtd">
<svg version="1.1" xmlns="http://www.w3.org/2000/svg" xmlns:xlink="http://www.w3.org/1999/xlink" x="0px" y="0px" viewBox="0 0 256 256" enable-background="new 0 0 256 256" xml:space="preserve">
<metadata> Svg Vector Icons : http://www.onlinewebfonts.com/icon </metadata>
<g><g><g><path fill="#000000" d="M123.8,11.4c-3.5,2.1-4.6,4.9-4.6,11.8v6l-3.1-1.9c-7.4-4.5-10.6-5.8-13.5-5.2c-4.1,0.8-7,4-7,7.8c0,5.4,1.3,6.7,12.8,13.4l10.7,6.1l0.1,3.2v3.2l-3.1-1.9c-7.4-4.5-10.6-5.8-13.5-5.2c-4.1,0.8-7,4-7,7.8c0,5.4,1.3,6.7,12.8,13.4l10.7,6.1l0.1,7.5c0,4.2-0.2,7.6-0.5,7.6c-0.4,0-3.2-1.6-6.5-3.5c-7.7-4.6-8.4-4.9-10-3.4c-1.2,1.1-1.4,2.4-1.4,9.3c0,4.4-0.2,8-0.5,8c-0.4,0-3.2-1.6-6.5-3.5l-5.9-3.5l-0.4-13.1l-0.4-13.1l-2.7-2.5c-3.4-3-7.4-3.4-10.5-1c-3.2,2.6-4.1,5.2-4.1,12.5c0,3.6-0.2,6.6-0.4,6.6s-1.4-0.6-2.5-1.3l-2.1-1.3L64.4,68l-0.2-13.2l-2.7-2.5c-3.9-3.5-7.6-3.5-11.5,0l-2.7,2.5L47,62.6c-0.1,4.3-0.4,7.8-0.7,7.8c-0.1,0-2.3-1.2-4.7-2.6c-5.8-3.4-7.5-3.8-11.2-2.3c-5.2,1.9-7,6.7-4.6,11.8c0.8,1.7,2.8,3.4,6.6,5.7l5.5,3.2l-6.3,3.6c-6.8,3.9-8.4,6-8.4,10.6c0,3.3,1.5,5.7,4.4,7.2c3.8,1.9,5.9,1.3,16.8-4.8c5.8-3.2,10.8-5.9,11.3-5.9c0.4,0,1.8,0.5,3.1,1.2l2.3,1.2l-6.2,3.6c-6.9,4-8.8,6.3-8.8,10.7c0,3.8,2,6.5,5.6,7.7c3.8,1.3,5.7,0.7,16.3-5.5c5.3-3.1,10.1-5.6,10.6-5.6c0.6,0,3.8,1.6,7.2,3.6l6.2,3.6l-5.8,3.3c-11.8,6.7-11.8,7.2-1.6,13.4l7.3,4.4l-6.2,3.5c-3.3,2-6.6,3.6-7.1,3.6c-0.5,0-5.3-2.5-10.7-5.6c-10.6-6.1-13.7-7-17.3-5.2c-3.1,1.6-4.6,3.9-4.6,7.3c0,4.4,1.8,6.6,8.6,10.6c5.5,3.2,6.1,3.7,4.9,4.6c-3.1,2.2-4.4,1.8-15.1-4.2c-11-6.2-13.1-6.8-16.9-4.9c-2.9,1.6-4.4,3.9-4.4,7.2c0,4.7,1.6,6.7,8.5,10.6l6.3,3.6l-5.5,3.1c-5.8,3.3-7.8,6-7.8,10.3c0,4.4,6.3,9.1,10.7,8c1-0.2,3.7-1.6,6.1-3c2.4-1.4,4.5-2.6,4.8-2.6c0.2,0,0.6,3.5,0.7,7.8l0.2,7.8l2.7,2.5c3.9,3.5,7.6,3.5,11.5,0l2.7-2.5l0.2-13.2l0.2-13.2l2.1-1.3c1.1-0.7,2.3-1.3,2.5-1.3c0.2,0,0.4,3,0.4,6.6c0,7.3,0.9,9.9,4.1,12.5c3.1,2.4,7.1,2.1,10.5-1l2.7-2.5l0.4-13.1l0.4-13.1l5.9-3.5c3.2-1.9,6.1-3.5,6.4-3.5c0.3,0,0.7,3.7,0.7,8.2c0.2,7.4,0.4,8.3,1.8,9.2c1.3,0.9,2.1,0.7,8-2.7c3.6-2.1,7-3.9,7.5-4.1c0.7-0.3,1,1.3,1,7.2l-0.1,7.7l-10.4,5.9c-11.4,6.5-13.1,8.3-13.1,13.5c0,4,2.8,7.2,7,8c3,0.5,4.7-0.1,12.8-4.9l3.8-2.2v3.1l-0.1,3.2l-10.7,6.1c-11.5,6.7-12.8,8-12.8,13.4c0,3.8,2.9,7,7,7.8c3,0.5,4.7-0.1,12.8-4.9l3.8-2.2v6.1c0,6.9,1.3,10,5.1,12c2.8,1.4,4.7,1.4,7.5,0c3.8-2,5.1-5.1,5.1-12v-6.1l3.9,2.3c9.8,5.8,13.5,6.3,17.6,2.1c1.6-1.7,2.1-2.7,2.1-5.3c0-5.2-1.7-7-13.1-13.5l-10.4-5.9l-0.1-3.2v-3.1l3.9,2.3c9.8,5.8,13.5,6.3,17.6,2.1c1.6-1.7,2.1-2.7,2.1-5.3c0-5.2-1.7-7-13.1-13.5l-10.4-5.9l-0.1-7.6c0-4.1,0.2-7.5,0.6-7.5c0.3,0,2.4,1.2,4.9,2.6c2.4,1.5,5.6,3.3,7.2,4.1c2.9,1.5,2.9,1.5,4.4,0c1.3-1.3,1.5-2.4,1.5-9.2c0-4.3,0.2-7.7,0.6-7.7c0.3,0,3.2,1.6,6.4,3.5l5.9,3.5l0.4,13.1l0.4,13.1l2.7,2.5c3.2,3,6.3,3.2,10,1c3.7-2.2,4.6-4.9,4.6-12.5c0-3.6,0.2-6.6,0.4-6.6c0.2,0,1.4,0.6,2.5,1.3l2.1,1.3l0.2,13.2l0.2,13.2l2.7,2.5c3.9,3.5,7.6,3.5,11.5,0l2.7-2.5l0.2-7.8c0.1-4.3,0.4-7.8,0.7-7.8c0.1,0,2.3,1.2,4.7,2.6c2.4,1.4,5.2,2.8,6.2,3c4.4,1.1,10.7-3.5,10.7-8c0-4.2-1.9-6.8-7.7-10.3l-5.5-3.2l6.3-3.6c6.8-3.9,8.4-6,8.4-10.6c0-3.3-1.5-5.7-4.4-7.2c-3.8-1.9-5.9-1.3-16.8,4.8c-5.8,3.2-10.8,5.9-11.3,5.9c-0.4,0-1.8-0.5-3.1-1.2l-2.3-1.2l6.4-3.7c6.9-4,8.6-6,8.6-10.7c0-3.4-1.5-5.7-4.6-7.3c-3.6-1.8-6.8-1-17.3,5.2c-5.3,3.1-10.1,5.6-10.7,5.6c-0.6,0-3.8-1.6-7.2-3.6l-6.2-3.5l7.3-4.4c6.1-3.7,7.2-4.6,7.2-6.2c0-1.5-1.2-2.5-7.2-6.2l-7.3-4.4l6.2-3.5c3.3-2,6.6-3.6,7.2-3.6s5.5,2.5,10.7,5.6c10.6,6.2,12.3,6.7,16.2,5.5c3.5-1.2,5.6-3.9,5.6-7.5c0-4.7-1.6-6.8-8.6-10.8l-6.4-3.7l2.3-1.2c1.3-0.7,2.7-1.2,3.1-1.2c0.5,0,5.5,2.7,11.3,5.9c10.8,6.1,13,6.7,16.8,4.8c3-1.6,4.4-3.9,4.4-7.2c0-4.6-1.6-6.7-8.5-10.6l-6.3-3.6l4.4-2.5c6.1-3.4,8.2-5.8,8.6-9.7c0.3-2.7,0.1-3.6-1.6-5.5c-2.2-2.7-6.3-4.3-8.9-3.6c-1,0.2-3.8,1.6-6.2,3c-2.4,1.4-4.6,2.6-4.7,2.6c-0.2,0-0.5-3.5-0.7-7.8l-0.2-7.8l-2.7-2.5c-3.9-3.5-7.6-3.5-11.5,0l-2.7,2.5l-0.2,13.3l-0.2,13.2l-2,1c-1.1,0.5-2.2,1.1-2.5,1.3c-0.4,0.1-0.6-2.9-0.6-6.7c0-6-0.2-7.3-1.7-9.4c-3.4-5.1-8.6-5.8-12.9-1.8l-2.7,2.5l-0.4,13.1l-0.4,13.1l-5.9,3.5c-3.2,1.9-6.1,3.5-6.4,3.5c-0.4,0-0.6-3.5-0.6-7.7c0-6.3-0.2-8-1.3-9.3l-1.3-1.6l-3,1.5c-1.6,0.9-4.9,2.7-7.3,4.2c-2.4,1.4-4.6,2.6-4.9,2.6c-0.4,0-0.6-3.4-0.6-7.6l0.1-7.5l10.4-5.9c11.4-6.5,13.1-8.3,13.1-13.5c0-2.6-0.4-3.6-2.1-5.3c-4.1-4.1-7.8-3.7-17.6,2.1l-3.9,2.3v-3.1l0.1-3.2l10.4-5.9c11.4-6.5,13.1-8.3,13.1-13.5c0-4-2.8-7.2-7-8c-3-0.5-4.7,0.1-12.7,4.9l-3.9,2.2v-6.1c0-6.9-1.3-10-5.1-12C128.8,9.6,126.7,9.6,123.8,11.4z M130.1,16.7c0.6,0.6,0.9,3.8,0.9,9.8c0,8.9,0.4,10.7,2.7,10.7c0.6,0,4.8-2.1,9.4-4.8s8.9-4.8,9.6-4.8c1.5,0,3.2,3.4,2.2,4.4c-0.4,0.4-5.9,3.7-12.1,7.2l-11.4,6.6l-0.2,7.9c-0.2,8,0.3,10,2.6,10c0.5,0,4.8-2.1,9.4-4.8c4.6-2.7,8.9-4.8,9.6-4.8c1.5,0,3.2,3.4,2.2,4.4c-0.4,0.4-5.9,3.7-12.1,7.2l-11.4,6.6l-0.2,12.8c-0.1,12.7,0.1,14.8,2.4,14.8c0.5,0,4.1-1.8,7.8-4.1c3.8-2.2,7.2-4.1,7.5-4.1s0.5,3.8,0.4,8.3c-0.1,4.5,0,8.7,0.4,9.2c1,1.7,3.2,0.9,12.7-4.6c5.2-3,10-5.8,10.6-6.2c0.9-0.5,1.2-3.2,1.5-14.9l0.4-14.3l1.9-0.2c1-0.1,2.3,0.2,2.7,0.8c0.5,0.6,1,4.9,1,11.2c0.3,13.1,0.2,13,9.5,7.6l6.9-4l0.4-14.4l0.4-14.3h2.6h2.6l0.4,11c0.3,9.4,0.6,11.1,1.6,11.8c1,0.6,1.8,0.5,3-0.2c6.6-4.1,14.3-8.2,15.2-8c1.8,0.4,2.9,2.6,1.9,4.1c-0.4,0.7-4.1,3.1-8.1,5.4c-10.5,5.9-10.4,6.3,1.5,13.2c5.2,3,9.3,5.7,9.3,6.1c0,1.6-1.6,3.6-2.9,3.6c-0.7,0-6.5-3-12.8-6.6l-11.6-6.7l-6.8,4c-5.6,3.2-6.9,4.3-7.1,5.8c-0.2,1.8,0.6,2.4,8.6,6.9c4.9,2.8,9.1,5.5,9.3,6c0.6,1.5-1,3.8-2.6,3.8c-0.7,0-6.6-3-12.8-6.6l-11.5-6.7l-11,6.4c-6,3.5-11.2,6.8-11.4,7.4c-0.7,1.9,0.3,2.9,7.3,6.9c3.8,2.1,7,4.2,7,4.5c0,0.3-3.2,2.4-7,4.5c-7,4-8,4.9-7.3,6.9c0.2,0.6,5.4,3.9,11.4,7.4l11,6.3l11.5-6.6c6.3-3.6,12.2-6.6,12.9-6.6c1.6,0,3.2,2.4,2.6,3.8c-0.2,0.5-4.4,3.2-9.3,6.1c-8,4.6-8.9,5.2-8.6,6.9c0.1,1.5,1.5,2.7,7.1,5.8l6.8,4l11.5-6.7c6.3-3.6,12.1-6.6,12.9-6.6c1.3,0,2.9,2,2.9,3.6c0,0.4-4.1,3.1-9.3,6.1c-11.9,6.9-12,7.3-1.5,13.2c4.1,2.3,7.7,4.7,8.1,5.4c1,1.5-0.1,3.7-1.9,4.1c-0.9,0.1-8.6-3.9-15.2-8c-1.2-0.7-1.9-0.8-3-0.2c-1,0.7-1.3,2.4-1.6,11.8l-0.4,11h-2.6h-2.6l-0.4-14.3l-0.4-14.4l-6.9-4.1c-9.3-5.4-9.2-5.5-9.5,7.7c-0.1,6.3-0.5,10.6-1,11.2c-0.4,0.6-1.7,1-2.7,0.8l-1.9-0.2l-0.2-14.2c-0.1-12.5-0.3-14.2-1.5-14.9c-12.7-7.5-20.6-11.8-21.6-11.8c-2.1,0-2.4,1.4-2.2,10.1c0.1,4.6-0.1,8.3-0.4,8.3c-0.3,0-3.7-1.8-7.5-4.1c-3.8-2.2-7.3-4.1-7.8-4.1c-2.3,0-2.6,2.1-2.4,14.8l0.2,12.8l11.4,6.6c6.2,3.5,11.7,6.8,12.1,7.2c1,1-0.7,4.4-2.2,4.4c-0.7,0-5-2.1-9.6-4.8c-4.6-2.7-8.9-4.8-9.4-4.8c-2.3,0-2.8,2-2.6,10l0.2,7.9l11.4,6.6c6.2,3.5,11.7,6.8,12.1,7.2c1,1-0.7,4.4-2.2,4.4c-0.7,0-5-2.1-9.6-4.8c-4.6-2.7-8.9-4.8-9.4-4.8c-2.1,0-2.7,2.1-2.9,11.1c-0.2,7.7-0.4,9.2-1.5,9.9c-1,0.6-1.7,0.6-2.6,0c-1.1-0.7-1.3-2.2-1.5-9.9c-0.2-9-0.7-11.1-2.9-11.1c-0.5,0-4.7,2.1-9.3,4.8c-4.6,2.7-8.9,4.8-9.6,4.8c-1.6,0-3.3-3.4-2.3-4.4c0.5-0.5,11.2-6.9,22.4-13.3c1.4-0.8,2-15.9,0.7-17.5c-1.4-1.7-2.5-1.3-11.2,3.8c-4.6,2.7-8.9,4.8-9.6,4.8c-1.6,0-3.3-3.4-2.3-4.4c0.4-0.4,5.8-3.6,12.1-7.2l11.4-6.6l0.2-12.8c0.1-12.7-0.1-14.8-2.4-14.8c-0.5,0-4.1,1.8-7.8,4.1c-3.8,2.2-7.2,4.1-7.5,4.1s-0.5-3.8-0.4-8.3c0.2-8.7-0.1-10.1-2.2-10.1c-1,0-8.9,4.3-21.6,11.8c-1.2,0.7-1.3,2.4-1.5,14.9l-0.2,14.2l-2.4,0.2c-3,0.3-3.1-0.1-3.4-12.7c-0.2-12.4-0.2-12.4-9.4-7l-6.9,4.1l-0.4,14.4l-0.4,14.3h-2.6h-2.6l-0.4-11c-0.3-9.4-0.6-11.1-1.6-11.8c-1-0.6-1.8-0.5-3,0.2c-6.6,4.1-14.3,8.2-15.2,8c-1.8-0.4-2.9-2.6-1.9-4.1c0.4-0.7,4.1-3.1,8.1-5.4c10.5-5.9,10.4-6.3-1.5-13.2c-5.2-2.9-9.3-5.7-9.3-6c0-1.6,1.6-3.6,2.9-3.6c0.7,0,6.5,3,12.8,6.6l11.6,6.7l6.8-4c5.6-3.2,6.9-4.3,7.1-5.8c0.2-1.8-0.6-2.4-8.6-6.9c-4.9-2.8-9.1-5.5-9.3-6.1c-0.6-1.5,1-3.8,2.6-3.8c0.7,0,6.6,3,12.9,6.6l11.5,6.6l11-6.3c6-3.5,11.1-6.8,11.4-7.4c0.7-1.9-0.3-2.9-7.3-6.9c-3.8-2.1-7-4.2-7-4.5c0-0.3,3.2-2.4,7-4.5c7-4,8-4.9,7.3-6.9c-0.2-0.6-5.4-3.9-11.4-7.4l-11-6.3l-11.5,6.6c-6.3,3.6-12.2,6.6-12.9,6.6c-1.6,0-3.2-2.4-2.6-3.8c0.2-0.5,4.4-3.2,9.3-6c8-4.6,8.9-5.2,8.6-6.9c-0.1-1.6-1.5-2.7-7-5.8l-6.9-3.9L44,96.3c-6.3,3.6-12.2,6.6-12.8,6.6c-1.3,0-2.8-2.1-2.8-3.6c0-0.4,4.1-3.1,9.3-6.1c11.9-6.9,12-7.3,1.5-13.2c-4.1-2.3-7.7-4.7-8.1-5.4c-1-1.5,0.1-3.7,1.9-4.1c0.6-0.1,4.6,1.8,8.9,4.3c10.8,6.2,10.8,6.3,11-8l0.2-10.8h2.6h2.6l0.4,14.3L59,84.8l6.9,4.1c9.2,5.4,9.2,5.4,9.4-7c0.3-12.5,0.4-13,3.4-12.7l2.4,0.2l0.2,14.2c0.1,12.5,0.3,14.2,1.5,14.9c12.7,7.5,20.6,11.8,21.6,11.8c2.1,0,2.4-1.4,2.2-10.1c-0.1-4.6,0.1-8.3,0.4-8.3s3.8,1.8,7.5,4.1c3.8,2.2,7.3,4.1,7.8,4.1c2.3,0,2.6-2.1,2.4-14.8l-0.2-12.8l-11.6-6.6c-6.3-3.7-11.8-7.2-12-7.7c-0.5-1.5,1-3.9,2.4-3.9c0.7,0,4.9,2.1,9.5,4.8c4.6,2.7,8.8,4.8,9.3,4.8c2.3,0,2.8-2,2.6-10l-0.2-7.9l-11.4-6.6c-6.3-3.6-11.7-6.9-12.1-7.2c-1-1,0.7-4.4,2.3-4.4c0.7,0,5,2.1,9.6,4.8c4.6,2.7,8.7,4.8,9.3,4.8c2.3,0,2.7-1.8,2.7-10.7c0-9.1,0.4-10.7,3-10.7C128.7,15.8,129.5,16.2,130.1,16.7z"/><path fill="#000000" d="M114,104.4c-0.8,0.5-1.2,2.6-1.5,7.9l-0.4,7.2l-5.5,3.2c-4.8,2.7-5.5,3.4-5.5,5.2c0,1.8,0.7,2.5,5.7,5.4l5.8,3.3v6.8c0,5.2,0.3,7,1.2,7.9c0.6,0.7,1.3,1.2,1.6,1.2c0.2,0,3.2-1.5,6.6-3.4l6.2-3.4l6,3.4c3.2,1.8,6.2,3.4,6.6,3.4c0.3,0,1.1-0.5,1.7-1.2c0.9-0.9,1.2-2.7,1.2-7.9v-6.8l5.8-3.3c4.9-2.9,5.7-3.6,5.7-5.4c0-1.8-0.7-2.4-5.5-5.2l-5.5-3.2l-0.2-5.8c-0.3-11.1-1.1-11.7-9.7-6.6l-5.9,3.4l-5.8-3.4C116,103.4,115.7,103.3,114,104.4z M132.8,114.3l4.8-2.7v5.5v5.5l4.4,2.5c4.9,2.7,4.9,2.6-0.9,6l-3.5,2v5.1c0,2.9-0.3,5.2-0.7,5.2c-0.4,0-2.4-1-4.3-2.2c-2-1.3-4-2.2-4.5-2.2c-0.4,0-2.6,1-4.7,2.2c-2.2,1.2-4.2,2.2-4.4,2.2c-0.3,0-0.5-2.3-0.5-5.2v-5.1l-3.5-2c-5.9-3.4-5.9-3.2-1-6l4.4-2.5v-5.5v-5.5l4.8,2.7l4.8,2.7L132.8,114.3z"/></g></g></g>
</svg>